<svg width="1920" height="195" viewBox="0 0 1920 195" fill="none" xmlns="http://www.w3.org/2000/svg"><mask id="a" style="mask-type:alpha" maskUnits="userSpaceOnUse" x="0" y="0" width="1711" height="195"><path d="M0 0h1711v195H0V0z" fill="url(#paint0_linear_3657_283912)"/></mask><g mask="url(#a)"><path d="M1476.18 348.773c-58.56-29.481-116.3-61.371-172.93-95.817h66.76c-131.1-79.745-256.28-173.137-372.317-281.302h55.637c-15.88-14.798-31.65-29.785-47.18-45.142C930.279-148.54 860.623-227.47 797.157-309.64h44.509c-69.615-90.136-131.704-184.194-186.384-281.302h33.382c-51.408-91.295-96.246-185.279-134.441-281.301h22.255a2333.172 2333.172 0 01-84.369-253.368l28.008-27.93c34.469 95.8 75.425 189.772 122.752 281.298h-22.254a2327.73 2327.73 0 00171.762 281.301h-33.382c70.027 98.292 148.552 192.399 235.607 281.302h-44.509c8.91 9.092 17.878 18.152 26.961 27.138C1073.1-187.49 1175.92-102.911 1283.7-28.338h-55.63c127.94 88.517 262.92 162.868 402.01 223.606l-153.9 153.513v-.008zm-28.01 27.935c-139.11-60.738-274.08-135.089-402.02-223.606h55.63C994.008 78.528 891.194-6.05 795.138-101.062a2393.229 2393.229 0 01-26.961-27.137h44.509c-87.056-88.903-165.58-183.011-235.607-281.302h33.382a2326.915 2326.915 0 01-171.762-281.302h22.254c-47.335-91.525-88.283-185.501-122.752-281.301l-28.008 27.935a2333.5 2333.5 0 0084.369 253.366h-22.255c38.203 96.023 83.042 190.007 134.441 281.302h-33.382A2332.5 2332.5 0 00659.75-128.199h-44.509c63.466 82.17 133.122 161.108 208.992 236.151 15.529 15.357 31.296 30.344 47.179 45.142h-55.636C931.82 261.251 1057 354.651 1188.1 434.395h-66.76c56.63 34.447 114.37 66.336 172.92 95.817L1448.17 376.7v.008zM901.983 921.487C762.877 860.75 627.91 786.398 499.964 697.882H555.6c-107.777-74.574-210.591-159.153-306.647-254.164a2393.306 2393.306 0 01-26.961-27.138h44.509c-87.056-88.903-165.58-183.01-235.607-281.301h33.382a2327.133 2327.133 0 01-171.762-281.302h22.254c-47.335-91.526-88.283-185.501-122.752-281.301L-236-399.381a2333.566 2333.566 0 0084.368 253.366h-22.254c38.203 96.023 83.041 190.006 134.44 281.302h-33.381a2332.472 2332.472 0 00186.383 281.301H69.048c63.466 82.17 133.121 161.109 208.992 236.152 15.528 15.357 31.296 30.344 47.179 45.142h-55.636c116.044 108.156 241.22 201.556 372.322 281.301h-66.763c56.633 34.447 114.371 66.337 172.924 95.817l153.909-153.513h.008zm363.827-362.895c-139.1-60.738-274.068-135.09-402.014-223.606h55.636C811.655 260.412 708.841 175.833 612.785 80.822a2394.118 2394.118 0 01-26.961-27.138h44.509c-87.056-88.903-165.58-183.01-235.607-281.301h33.382a2327.197 2327.197 0 01-171.762-281.302H278.6c-47.335-91.525-88.283-185.501-122.752-281.301l-28.008 27.935a2333.572 2333.572 0 0084.369 253.366h-22.255c38.203 96.023 83.042 190.006 134.441 281.302h-33.382A2332.506 2332.506 0 00477.397 53.684h-44.509c63.466 82.17 133.122 161.109 208.992 236.151 15.529 15.357 31.296 30.345 47.179 45.143h-55.635c116.043 108.156 241.219 201.556 372.326 281.301h-66.767c56.633 34.446 114.367 66.336 172.927 95.817l153.9-153.513v.009zM1083.9 740.04c-139.107-60.738-274.074-135.09-402.02-223.606h55.636C629.739 441.86 526.925 357.281 430.869 262.27a2393.306 2393.306 0 01-26.961-27.138h44.509c-87.056-88.903-165.58-183.01-235.607-281.301h33.382A2327.148 2327.148 0 0174.43-327.471h22.254C49.35-418.996 8.401-512.972-26.068-608.772l-28.008 27.935a2333.603 2333.603 0 0084.369 253.366H8.038C46.241-231.448 91.08-137.465 142.48-46.169h-33.382a2332.445 2332.445 0 00186.384 281.301h-44.509c63.466 82.17 133.122 161.109 208.992 236.151 15.529 15.357 31.296 30.344 47.179 45.142h-55.635C567.552 624.582 692.728 717.982 823.83 797.727h-66.762c56.632 34.446 114.37 66.336 172.923 95.817l153.91-153.513v.009z" fill="url(#paint1_linear_3657_283912)"/></g><defs><linearGradient id="paint0_linear_3657_283912" x1="747.758" y1="-328.235" x2="870.154" y2="295.837" gradientUnits="userSpaceOnUse"><stop offset=".2" stop-color="#05F0FF"/><stop offset=".81" stop-color="#7367FF"/><stop offset="1" stop-color="#963CFF"/></linearGradient><linearGradient id="paint1_linear_3657_283912" x1="671.5" y1="-2538.5" x2="2774.42" y2="-898.522" gradientUnits="userSpaceOnUse"><stop offset=".2" stop-color="#05F0FF"/><stop offset=".81" stop-color="#7367FF"/><stop offset="1" stop-color="#963CFF"/></linearGradient></defs></svg>